<?xml version="1.0" encoding="utf-8"?><svg xmlns="http://www.w3.org/2000/svg" xmlns:xlink="http://www.w3.org/1999/xlink"><symbol viewBox="0 0 10 20" id="facebook" xmlns="http://www.w3.org/2000/svg"><path d="M2.65 19.6v-9.01H.2V7.348h2.45v-2.77C2.65 2.398 4.099.4 7.435.4c1.35 0 2.35.126 2.35.126l-.08 3.029s-1.018-.01-2.13-.01c-1.202 0-1.395.54-1.395 1.433v2.369H9.8l-.157 3.244H6.179V19.6H2.651z"/></symbol><symbol viewBox="0 0 20 20" id="instagram" xmlns="http://www.w3.org/2000/svg"><path d="M10 6.81A3.197 3.197 0 006.81 10 3.197 3.197 0 0010 13.19 3.197 3.197 0 0013.19 10 3.197 3.197 0 0010 6.81zM19.568 10c0-1.321.012-2.63-.063-3.949-.074-1.531-.423-2.89-1.543-4.01C16.84.918 15.482.57 13.95.497 12.63.423 11.321.435 10.002.435c-1.32 0-2.63-.012-3.948.062-1.532.074-2.891.424-4.011 1.544C.921 3.163.573 4.52.499 6.05.425 7.372.437 8.681.437 10S.425 12.63.5 13.949c.075 1.531.424 2.89 1.544 4.01 1.122 1.123 2.48 1.47 4.01 1.544 1.322.074 2.63.062 3.95.062 1.32 0 2.63.012 3.948-.062 1.532-.074 2.89-.424 4.01-1.544 1.123-1.122 1.47-2.479 1.544-4.01.077-1.319.063-2.628.063-3.949zM10 14.908A4.901 4.901 0 015.092 10 4.901 4.901 0 0110 5.092 4.901 4.901 0 0114.908 10 4.901 4.901 0 0110 14.908zm5.11-8.871a1.145 1.145 0 01-1.147-1.146c0-.634.512-1.147 1.146-1.147a1.145 1.145 0 01.811 1.958 1.146 1.146 0 01-.81.335z"/></symbol><symbol viewBox="0 0 20 17" id="twitter" xmlns="http://www.w3.org/2000/svg"><path d="M19.301 2.521a7.788 7.788 0 01-2.233.612 3.898 3.898 0 001.71-2.152 7.763 7.763 0 01-2.47.943 3.89 3.89 0 00-6.626 3.548 11.043 11.043 0 01-8.016-4.064A3.89 3.89 0 002.87 6.6a3.88 3.88 0 01-1.761-.486v.05a3.89 3.89 0 003.12 3.813 3.917 3.917 0 01-1.757.067 3.891 3.891 0 003.633 2.7 7.804 7.804 0 01-5.758 1.611 10.998 10.998 0 005.96 1.747c7.154 0 11.065-5.925 11.065-11.064 0-.167-.004-.336-.012-.503a7.906 7.906 0 001.94-2.011l.001-.003z"/></symbol></svg>