<svg width="20" height="17" viewBox="0 0 20 17" fill="none" xmlns="http://www.w3.org/2000/svg">
<path d="M19.3013 2.52113C18.6042 2.83 17.8554 3.0387 17.0682 3.13303C17.8805 2.64701 18.4881 1.88208 18.7778 0.980957C18.0147 1.43424 17.1795 1.75329 16.3086 1.92426C15.7229 1.2989 14.9471 0.884395 14.1017 0.74511C13.2563 0.605824 12.3885 0.749548 11.6331 1.15397C10.8778 1.55839 10.2771 2.20088 9.92427 2.98168C9.57147 3.76249 9.48633 4.63793 9.68205 5.47209C8.13578 5.39445 6.6231 4.99255 5.2422 4.29246C3.8613 3.59237 2.64303 2.60975 1.66647 1.40837C1.33256 1.98437 1.14056 2.65219 1.14056 3.36343C1.14019 4.0037 1.29786 4.63417 1.59959 5.19889C1.90132 5.76361 2.33777 6.24513 2.87023 6.60071C2.25272 6.58107 1.64883 6.41421 1.10884 6.11404V6.16412C1.10877 7.06213 1.4194 7.93251 1.98802 8.62756C2.55663 9.32262 3.3482 9.79954 4.22842 9.97741C3.65558 10.1324 3.055 10.1553 2.47204 10.0442C2.72038 10.8169 3.20414 11.4926 3.85558 11.9767C4.50702 12.4607 5.29353 12.729 6.10501 12.7439C4.72748 13.8253 3.02624 14.4118 1.27496 14.4093C0.964737 14.4094 0.654778 14.3912 0.34668 14.355C2.12433 15.498 4.19364 16.1046 6.30703 16.1022C13.4611 16.1022 17.3721 10.1769 17.3721 5.038C17.3721 4.87104 17.3679 4.70242 17.3604 4.53546C18.1211 3.98532 18.7778 3.30407 19.2996 2.52364L19.3013 2.52113Z" fill="white"/>
</svg>
