<svg width="20" height="20" viewBox="0 0 20 20" fill="none" xmlns="http://www.w3.org/2000/svg">
<path d="M10 6.80999C8.2435 6.80999 6.81004 8.24345 6.81004 9.99998C6.81004 11.7565 8.2435 13.19 10 13.19C11.7566 13.19 13.19 11.7565 13.19 9.99998C13.19 8.24345 11.7566 6.80999 10 6.80999ZM19.5676 9.99998C19.5676 8.67899 19.5796 7.36997 19.5054 6.05138C19.4312 4.5198 19.0818 3.16053 17.9619 2.04056C16.8395 0.918198 15.4826 0.5712 13.951 0.497014C12.63 0.422828 11.321 0.434794 10.0024 0.434794C8.68144 0.434794 7.37242 0.422828 6.05382 0.497014C4.52224 0.5712 3.16297 0.920591 2.043 2.04056C0.92064 3.16292 0.573641 4.5198 0.499456 6.05138C0.42527 7.37237 0.437235 8.68139 0.437235 9.99998C0.437235 11.3186 0.42527 12.63 0.499456 13.9486C0.573641 15.4802 0.923033 16.8394 2.043 17.9594C3.16536 19.0818 4.52224 19.4288 6.05382 19.5029C7.37481 19.5771 8.68383 19.5652 10.0024 19.5652C11.3234 19.5652 12.6324 19.5771 13.951 19.5029C15.4826 19.4288 16.8419 19.0794 17.9619 17.9594C19.0842 16.837 19.4312 15.4802 19.5054 13.9486C19.582 12.63 19.5676 11.321 19.5676 9.99998ZM10 14.9082C7.28387 14.9082 5.0918 12.7161 5.0918 9.99998C5.0918 7.28382 7.28387 5.09175 10 5.09175C12.7162 5.09175 14.9083 7.28382 14.9083 9.99998C14.9083 12.7161 12.7162 14.9082 10 14.9082ZM15.1093 6.03702C14.4751 6.03702 13.963 5.5249 13.963 4.89073C13.963 4.25656 14.4751 3.74444 15.1093 3.74444C15.7435 3.74444 16.2556 4.25656 16.2556 4.89073C16.2558 5.04132 16.2262 5.19046 16.1687 5.32962C16.1112 5.46878 16.0267 5.59522 15.9203 5.7017C15.8138 5.80818 15.6873 5.89261 15.5482 5.95015C15.409 6.00769 15.2599 6.03721 15.1093 6.03702Z" fill="white"/>
</svg>
